<?xml version="1.0" encoding="UTF-8"?>
<svg xmlns="http://www.w3.org/2000/svg" version="1.1" viewBox="0 0 725 256">
  <!-- Generator: Adobe Illustrator 30.4.0, SVG Export Plug-In . SVG Version: 2.1.4 Build 226)  -->
  <defs>
    <style>
      .st0 {
        fill: #7cc464;
      }

      .st1 {
        fill: #bedb74;
      }

      .st2 {
        fill: #0a6f39;
      }
    </style>
  </defs>
  <g id="Camada_1">
    <path class="st1" d="M30.66,199.58c-5.58-3.69-16.64-8.03-20.18-13.14-2.02-2.91-1.2-21.47-1.2-25.71l-.03-40.31-.06-27.32c-.03-6.56-.54-16.7.92-22.88.55-2.33,16.15-10.86,19.03-12.55l35.21-20.33,26.43-15.35c6.99-4.02,16.78-11.81,24.72-7.65,6,3.14,11.98,6.69,17.85,10.09l36.32,21.1c11.43,6.62,23.02,13.06,34.41,19.75,3.94,2.32,6.35,4.98,7,9.54l.26,5.46c.5,22.3.15,45.83.15,68.22l.03,19.86c.03,7.55,1.59,16.82-5.77,21.4-6.65,4.14-13.44,8.05-20.26,11.91-16.99,9.62-33.91,19.36-50.76,29.22-5.15,3-17.4,9.49-21.61,12.58h-6.22c-1.18-.86-4.61-2.63-6.03-3.44l-12.66-7.21c-8.1-4.64-15.99-9.75-24.21-14.16-6.83-3.66-13.38-7.55-20-11.58-2.83-2.13-10.11-6.08-13.34-7.5Z"/>
    <path class="st2" d="M30.66,199.58c-5.58-3.69-16.64-8.03-20.18-13.14-2.02-2.91-1.2-21.47-1.2-25.71l-.03-40.31-.06-27.32c-.03-6.56-.54-16.7.92-22.88.55-2.33,16.15-10.86,19.03-12.55l35.21-20.33,26.43-15.35c6.99-4.02,16.78-11.81,24.72-7.65,6,3.14,11.98,6.69,17.85,10.09l36.32,21.1c11.43,6.62,23.02,13.06,34.41,19.75,3.94,2.32,6.35,4.98,7,9.54-1.63-1.38-7.52-2.99-9.81-3.57-61.97-15.5-166.63-10.7-159.15,76.99l.04.46c3.19-2.95,5.92-6.08,8.98-9.11,4.47-4.35,9.17-8.46,14.08-12.31,21.39-16.44,48.49-26.95,75.07-30.81,5.72-.83,13.12-1.66,18.91-1.43.97.03,1.93.12,2.89.26-14.48,5.15-28.5,11.49-41.94,18.95-34.67,18.87-70.21,45.51-87.82,81.73-.58,1.19-1.14,2.39-1.68,3.6Z"/>
    <path class="st0" d="M211.33,80.28c.5,22.3.15,45.83.15,68.22l.03,19.86c.03,7.55,1.59,16.82-5.77,21.4-6.65,4.14-13.44,8.05-20.26,11.91-16.99,9.62-33.91,19.36-50.76,29.22-5.15,3-17.4,9.49-21.61,12.58h-6.22c-1.18-.86-4.61-2.63-6.03-3.44l-12.66-7.21c-8.1-4.64-15.99-9.75-24.21-14.16-6.83-3.66-13.38-7.55-20-11.58,3.63-8.39,16.5-28.42,22.87-34.57,16.5,5.46,24.26,7.46,41.22,7.91,46.55,1.24,54.81-39.71,73.7-72.64,4.61-8.04,19.59-24.98,29.55-27.51Z"/>
  </g>
  <g id="Camada_2">
    <g>
      <path class="st2" d="M248.57,132.1V56.11c0-1.53.76-2.29,2.29-2.29h32.52c5.54,0,10.46,1.16,14.74,3.47,4.28,2.31,7.62,5.54,10.01,9.69,2.39,4.15,3.58,8.9,3.58,14.25s-1.05,9.51-3.15,13.16c-2.1,3.65-5.05,6.62-8.83,8.92l14.22,28.39c.23.46.34.86.34,1.2,0,.46-.18.82-.54,1.09-.36.27-.85.4-1.46.4h-18.35c-1.26,0-2.16-.57-2.7-1.72l-11.24-24.03c-.57.04-1.4.06-2.47.06h-8.32v23.4c0,1.53-.77,2.29-2.29,2.29h-16.06c-1.53,0-2.29-.76-2.29-2.29ZM286.25,89.84c1.41-.92,2.52-2.14,3.33-3.67.8-1.53,1.2-3.15,1.2-4.88,0-3.02-.88-5.34-2.64-6.97-1.76-1.62-3.92-2.44-6.48-2.44h-12.45v19.33h12.27c1.76,0,3.35-.46,4.76-1.38Z"/>
      <path class="st2" d="M382.12,134.4h-54.83c-1.53,0-2.29-.76-2.29-2.29V56.11c0-1.53.76-2.29,2.29-2.29h53.97c1.53,0,2.29.77,2.29,2.29v14.05c0,1.53-.76,2.29-2.29,2.29h-35.62v12.56h27.36c1.53,0,2.29.77,2.29,2.29v12.9c0,1.53-.76,2.29-2.29,2.29h-27.36v13.25h36.48c1.53,0,2.29.77,2.29,2.29v14.05c0,1.53-.77,2.29-2.29,2.29Z"/>
      <path class="st2" d="M411.44,130.21c-6.4-3.75-11.45-8.81-15.14-15.2-3.69-6.38-5.53-13.4-5.53-21.05s1.84-14.66,5.53-21.05c3.69-6.38,8.73-11.42,15.11-15.11,6.38-3.69,13.48-5.53,21.28-5.53,4.74,0,9.28.73,13.62,2.18,4.34,1.45,8.27,3.5,11.79,6.14.65.5.97,1.07.97,1.72,0,.5-.19.99-.57,1.49l-9.29,12.16c-.54.65-1.11.98-1.72.98-.5,0-1-.17-1.49-.52-1.95-1.34-4.07-2.4-6.37-3.18-2.29-.78-4.61-1.18-6.94-1.18-3.71,0-7.17.97-10.38,2.9-3.21,1.93-5.78,4.58-7.71,7.94-1.93,3.36-2.9,7.07-2.9,11.13s.96,7.76,2.9,11.13c1.93,3.37,4.51,6.02,7.74,7.97,3.23,1.95,6.68,2.92,10.35,2.92,2.64,0,4.96-.33,6.97-1,2.01-.67,4.16-1.83,6.45-3.47.54-.34,1.05-.52,1.55-.52.65,0,1.22.33,1.72.98l9.12,12.22c.42.61.63,1.15.63,1.61,0,.54-.29,1.03-.86,1.49-3.56,2.72-7.51,4.81-11.87,6.28s-8.93,2.21-13.71,2.21c-7.76,0-14.84-1.87-21.25-5.62Z"/>
      <path class="st2" d="M488.19,134.4h-16.06c-1.53,0-2.29-.76-2.29-2.29V56.11c0-1.53.76-2.29,2.29-2.29h16.06c1.53,0,2.29.77,2.29,2.29v75.99c0,1.53-.77,2.29-2.29,2.29Z"/>
      <path class="st2" d="M522.67,130.21c-6.4-3.75-11.45-8.81-15.14-15.2-3.69-6.38-5.53-13.4-5.53-21.05s1.84-14.66,5.53-21.05c3.69-6.38,8.73-11.42,15.11-15.11,6.38-3.69,13.48-5.53,21.28-5.53,4.74,0,9.28.73,13.62,2.18,4.34,1.45,8.27,3.5,11.79,6.14.65.5.97,1.07.97,1.72,0,.5-.19.99-.57,1.49l-9.29,12.16c-.54.65-1.11.98-1.72.98-.5,0-1-.17-1.49-.52-1.95-1.34-4.07-2.4-6.37-3.18-2.29-.78-4.61-1.18-6.94-1.18-3.71,0-7.17.97-10.38,2.9-3.21,1.93-5.78,4.58-7.71,7.94-1.93,3.36-2.9,7.07-2.9,11.13s.96,7.76,2.9,11.13c1.93,3.37,4.51,6.02,7.74,7.97,3.23,1.95,6.68,2.92,10.35,2.92,2.64,0,4.96-.33,6.97-1,2.01-.67,4.16-1.83,6.45-3.47.54-.34,1.05-.52,1.55-.52.65,0,1.22.33,1.72.98l9.12,12.22c.42.61.63,1.15.63,1.61,0,.54-.29,1.03-.86,1.49-3.56,2.72-7.51,4.81-11.87,6.28s-8.93,2.21-13.71,2.21c-7.76,0-14.84-1.87-21.25-5.62Z"/>
      <path class="st2" d="M632.79,134.4h-49.44c-1.53,0-2.29-.76-2.29-2.29V56.11c0-1.53.76-2.29,2.29-2.29h16.06c1.53,0,2.29.77,2.29,2.29v58.56h31.08c1.53,0,2.29.77,2.29,2.29v15.14c0,1.53-.77,2.29-2.29,2.29Z"/>
      <path class="st2" d="M717.37,132.74c0,.54-.17.95-.52,1.23-.34.29-.82.43-1.43.43h-16.52c-1.3,0-2.16-.63-2.58-1.89l-3.67-10.72h-28.91l-3.67,10.72c-.38,1.26-1.24,1.89-2.58,1.89h-16.46c-.61,0-1.1-.14-1.46-.43-.36-.29-.54-.7-.54-1.23,0-.31.06-.63.17-.97l29.36-76.22c.46-1.22,1.34-1.83,2.64-1.83h14.17c1.3,0,2.18.61,2.64,1.83l29.19,76.22c.12.34.17.67.17.97ZM686.85,104.58l-7.68-22.6-1.03-3.67-.86,3.67-7.68,22.6h17.26Z"/>
    </g>
    <g>
      <path class="st0" d="M276.79,182.69h5.14c.76,0,1.14.38,1.14,1.14v12.56c0,.59-.23,1.05-.68,1.37-1.79,1.26-3.82,2.23-6.11,2.93s-4.6,1.04-6.96,1.04c-3.82,0-7.33-.93-10.5-2.78-3.18-1.85-5.68-4.38-7.51-7.56-1.83-3.19-2.74-6.68-2.74-10.49s.91-7.29,2.74-10.46c1.83-3.17,4.32-5.67,7.49-7.5,3.17-1.84,6.67-2.75,10.52-2.75,2.34,0,4.58.37,6.74,1.11,2.15.74,4.11,1.78,5.88,3.11.32.27.49.54.49.83,0,.25-.1.5-.31.77l-3.14,4.11c-.27.32-.55.49-.86.49-.25,0-.49-.08-.74-.26-1.16-.84-2.43-1.5-3.81-2-1.38-.49-2.79-.74-4.24-.74-2.3,0-4.44.59-6.42,1.77-1.98,1.18-3.56,2.79-4.74,4.82-1.18,2.04-1.77,4.28-1.77,6.74s.59,4.75,1.77,6.82c1.18,2.07,2.76,3.71,4.74,4.92,1.98,1.21,4.12,1.81,6.42,1.81,1.08,0,2.17-.12,3.27-.37,1.09-.25,2.12-.6,3.07-1.06v-9.22c0-.76.38-1.14,1.14-1.14Z"/>
      <path class="st0" d="M324.5,198.93c-3.17-1.85-5.67-4.36-7.49-7.53-1.83-3.18-2.74-6.67-2.74-10.47s.91-7.32,2.74-10.47c1.83-3.16,4.32-5.66,7.49-7.49,3.17-1.84,6.67-2.75,10.52-2.75s7.32.92,10.49,2.75,5.67,4.33,7.51,7.49c1.84,3.16,2.75,6.65,2.75,10.47s-.92,7.3-2.75,10.47c-1.84,3.18-4.34,5.69-7.51,7.53s-6.66,2.77-10.49,2.77-7.35-.92-10.52-2.77ZM341.45,192.51c1.97-1.18,3.54-2.79,4.71-4.82,1.17-2.04,1.76-4.28,1.76-6.73s-.58-4.73-1.76-6.76c-1.17-2.04-2.74-3.64-4.72-4.81-1.98-1.17-4.12-1.75-6.42-1.75s-4.44.58-6.42,1.75c-1.98,1.17-3.55,2.77-4.72,4.81-1.17,2.04-1.75,4.29-1.75,6.76s.58,4.7,1.75,6.73c1.17,2.04,2.74,3.64,4.72,4.82,1.98,1.18,4.12,1.77,6.42,1.77s4.47-.59,6.44-1.77Z"/>
      <path class="st0" d="M395.21,201.01h-5.45c-.76,0-1.14-.38-1.14-1.14v-37.81c0-.76.38-1.14,1.14-1.14h5.45c.76,0,1.14.38,1.14,1.14v37.81c0,.76-.38,1.14-1.14,1.14Z"/>
      <path class="st0" d="M465.05,200.19c0,.27-.08.47-.26.61-.17.14-.41.21-.71.21h-5.62c-.65,0-1.07-.3-1.28-.91l-2.51-6.74h-16.72l-2.48,6.74c-.21.61-.64.91-1.28.91h-5.59c-.32,0-.57-.07-.74-.21s-.26-.35-.26-.61c0-.15.03-.31.09-.49l14.9-37.93c.23-.61.67-.91,1.31-.91h4.91c.67,0,1.11.3,1.34.91l14.84,37.93c.06.17.08.33.08.49ZM452.33,186.71l-5.65-15.3-.37-1.31-.34,1.31-5.68,15.3h12.04ZM452.58,151.9c.17.11.26.28.26.49,0,.25-.13.5-.4.74l-4.71,4.59c-.4.38-.88.57-1.43.57h-3.54c-.3,0-.54-.06-.71-.19-.17-.12-.26-.29-.26-.5,0-.23.08-.47.26-.71l3.31-4.48c.32-.46.78-.68,1.37-.68h5.11c.32,0,.57.06.74.17Z"/>
      <path class="st0" d="M500.45,199.94c-2.68-1.13-4.99-2.77-6.93-4.92-.23-.27-.34-.52-.34-.77,0-.29.14-.57.43-.86l3.42-3.31c.25-.25.5-.37.77-.37.3,0,.58.14.83.43,1.37,1.37,2.94,2.42,4.72,3.15s3.6,1.1,5.47,1.1c2.15,0,3.85-.43,5.09-1.28s1.87-2.05,1.87-3.6c0-1.03-.3-1.88-.9-2.57-.6-.69-1.51-1.29-2.74-1.81-1.23-.52-2.94-1.1-5.15-1.73-3.48-.95-6.41-2.33-8.79-4.14-2.38-1.81-3.57-4.41-3.57-7.82,0-2.07.55-3.96,1.64-5.67,1.09-1.7,2.7-3.05,4.82-4.05,2.12-1,4.65-1.5,7.58-1.5,2.49,0,4.89.43,7.21,1.3,2.31.87,4.37,2.06,6.18,3.58.3.23.46.5.46.8,0,.27-.11.53-.34.8l-3.14,3.62c-.25.3-.52.46-.83.46-.25,0-.5-.1-.77-.31-1.16-.91-2.5-1.66-4.01-2.24-1.51-.58-3.01-.87-4.49-.87-1.92,0-3.47.36-4.65,1.08-1.18.72-1.77,1.76-1.77,3.11,0,.97.3,1.77.91,2.4.61.63,1.41,1.15,2.4,1.55.99.41,2.43.9,4.31,1.47l.63.2c2.78.89,5.08,1.83,6.89,2.81,1.82.98,3.26,2.23,4.34,3.74,1.07,1.51,1.61,3.38,1.61,5.61,0,2.49-.62,4.67-1.87,6.52-1.25,1.86-2.98,3.28-5.19,4.28-2.22,1-4.74,1.5-7.58,1.5-2.99,0-5.82-.57-8.5-1.7Z"/>
    </g>
  </g>
</svg>