<svg xmlns="http://www.w3.org/2000/svg" viewBox="0 0 720 240" width="720" height="240">
  <!-- Placeholder temporário: o arquivo final deve ser PNG. Salve a logo
       oficial do PMI Goiás em public/premio/pmi-goias-logo.png substituindo
       este placeholder. -->
  <rect x="0" y="0" width="720" height="240" fill="#FFFFFF"/>
  <g transform="translate(40, 50)">
    <!-- P (laranja) -->
    <rect x="0" y="0" width="50" height="120" fill="#F26C30"/>
    <circle cx="80" cy="40" r="40" fill="#F26C30"/>
    <!-- M (laranja) -->
    <path d="M130 0 L130 120 L150 120 L150 40 L175 80 L200 40 L200 120 L220 120 L220 0 L195 0 L175 50 L155 0 Z" fill="#F26C30"/>
    <!-- I (roxo) com seta -->
    <rect x="240" y="0" width="50" height="120" fill="#612A8C"/>
    <polygon points="265,5 285,30 270,30 270,55 260,55 260,30 245,30" fill="#FFFFFF"/>
  </g>
  <g transform="translate(320, 30)" font-family="Inter, system-ui, sans-serif" font-weight="700" fill="#1F1F1F">
    <text x="0" y="40" font-size="42">Project</text>
    <text x="0" y="85" font-size="42">Management</text>
    <text x="0" y="130" font-size="42">Institute<tspan font-size="20" baseline-shift="super">®</tspan></text>
    <text x="0" y="175" font-size="36" font-weight="600">Goiás, Brazil</text>
  </g>
  <text x="50%" y="220" text-anchor="middle" fill="#888" font-family="Inter, system-ui, sans-serif" font-size="11" font-style="italic">
    Placeholder — substituir por public/premio/pmi-goias-logo.png oficial
  </text>
</svg>
