<?xml version="1.0" encoding="UTF-8"?>
<svg id="Camada_1" xmlns="http://www.w3.org/2000/svg" version="1.1" viewBox="0 0 850.39 850.39">
  <!-- Generator: Adobe Illustrator 30.4.0, SVG Export Plug-In . SVG Version: 2.1.4 Build 226)  -->
  <defs>
    <style>
      .st0 {
        fill: #7cc464;
      }

      .st1 {
        fill: #bedb74;
      }

      .st2 {
        fill: #0a6f39;
      }
    </style>
  </defs>
  <g>
    <path class="st1" d="M297.17,425.17c-8.96-5.93-26.72-12.9-32.41-21.11-3.24-4.67-1.94-34.49-1.93-41.3l-.05-64.75-.1-43.88c-.05-10.54-.87-26.83,1.47-36.74.88-3.75,25.94-17.45,30.56-20.15l56.55-32.65,42.45-24.65c11.22-6.46,26.94-18.97,39.7-12.28,9.64,5.05,19.23,10.75,28.67,16.2l58.34,33.88c18.36,10.63,36.98,20.97,55.27,31.72,6.33,3.72,10.2,7.99,11.24,15.32l.41,8.77c.81,35.82.23,73.61.23,109.58l.06,31.9c.06,12.13,2.55,27.02-9.26,34.37-10.68,6.64-21.59,12.93-32.54,19.13-27.28,15.46-54.46,31.1-81.53,46.92-8.27,4.81-27.94,15.25-34.71,20.21h-10c-1.9-1.38-7.4-4.23-9.69-5.52l-20.33-11.58c-13-7.45-25.67-15.66-38.88-22.74-10.96-5.88-21.5-12.13-32.12-18.6-4.55-3.42-16.24-9.77-21.42-12.05Z"/>
    <path class="st2" d="M297.17,425.17c-8.96-5.93-26.72-12.9-32.41-21.11-3.24-4.67-1.94-34.49-1.93-41.3l-.05-64.75-.1-43.88c-.05-10.54-.87-26.83,1.47-36.74.88-3.75,25.94-17.45,30.56-20.15l56.55-32.65,42.45-24.65c11.22-6.46,26.94-18.97,39.7-12.28,9.64,5.05,19.23,10.75,28.67,16.2l58.34,33.88c18.36,10.63,36.98,20.97,55.27,31.72,6.33,3.72,10.2,7.99,11.24,15.32-2.61-2.21-12.08-4.81-15.75-5.73-99.53-24.89-267.64-17.18-255.61,123.65l.07.74c5.12-4.74,9.51-9.76,14.43-14.63,7.18-6.99,14.73-13.59,22.61-19.77,34.35-26.41,77.88-43.29,120.58-49.48,9.18-1.33,21.08-2.66,30.37-2.29,1.55.05,3.1.19,4.64.42-23.25,8.28-45.78,18.46-67.36,30.44-55.69,30.31-112.77,73.09-141.05,131.26-.93,1.91-1.82,3.84-2.69,5.78Z"/>
    <path class="st0" d="M587.35,233.56c.81,35.82.23,73.61.23,109.58l.06,31.9c.06,12.13,2.55,27.02-9.26,34.37-10.68,6.64-21.59,12.93-32.54,19.13-27.28,15.46-54.46,31.1-81.53,46.92-8.27,4.81-27.94,15.25-34.71,20.21h-10c-1.9-1.38-7.4-4.23-9.69-5.52l-20.33-11.58c-13-7.45-25.67-15.66-38.88-22.74-10.96-5.88-21.5-12.13-32.12-18.6,5.83-13.47,26.49-45.65,36.73-55.52,26.51,8.77,38.96,11.98,66.2,12.71,74.77,1.99,88.04-63.79,118.36-116.67,7.41-12.92,31.47-40.13,47.46-44.18Z"/>
  </g>
  <g>
    <path class="st2" d="M116.59,632.98v-100.05c0-2.01,1.01-3.02,3.02-3.02h42.81c7.3,0,13.77,1.52,19.41,4.57,5.64,3.05,10.03,7.3,13.18,12.76,3.15,5.46,4.72,11.72,4.72,18.76s-1.39,12.52-4.15,17.33c-2.77,4.81-6.64,8.72-11.63,11.74l18.73,37.38c.3.6.45,1.13.45,1.59,0,.6-.24,1.08-.72,1.43-.48.35-1.12.53-1.93.53h-24.16c-1.66,0-2.84-.75-3.55-2.27l-14.8-31.64c-.76.05-1.84.08-3.25.08h-10.95v30.81c0,2.01-1.01,3.02-3.02,3.02h-21.14c-2.01,0-3.02-1.01-3.02-3.02ZM166.2,577.34c1.86-1.21,3.32-2.82,4.38-4.83,1.06-2.01,1.59-4.15,1.59-6.42,0-3.98-1.16-7.03-3.47-9.17-2.32-2.14-5.16-3.21-8.53-3.21h-16.39v25.45h16.16c2.31,0,4.4-.6,6.27-1.81Z"/>
    <path class="st2" d="M292.43,636h-72.19c-2.01,0-3.02-1.01-3.02-3.02v-100.05c0-2.01,1.01-3.02,3.02-3.02h71.05c2.01,0,3.02,1.01,3.02,3.02v18.5c0,2.01-1.01,3.02-3.02,3.02h-46.89v16.54h36.02c2.01,0,3.02,1.01,3.02,3.02v16.99c0,2.01-1.01,3.02-3.02,3.02h-36.02v17.44h48.02c2.01,0,3.02,1.01,3.02,3.02v18.5c0,2.01-1.01,3.02-3.02,3.02Z"/>
    <path class="st2" d="M331.03,630.49c-8.43-4.93-15.08-11.6-19.93-20.01-4.86-8.41-7.29-17.64-7.29-27.71s2.43-19.3,7.29-27.71c4.86-8.41,11.49-15.04,19.9-19.9,8.41-4.86,17.74-7.29,28.01-7.29,6.24,0,12.22.96,17.93,2.87,5.71,1.91,10.88,4.61,15.52,8.08.86.66,1.28,1.41,1.28,2.27,0,.65-.25,1.31-.75,1.96l-12.23,16.01c-.71.86-1.46,1.28-2.27,1.28-.65,0-1.31-.23-1.96-.68-2.57-1.76-5.36-3.16-8.38-4.19-3.02-1.03-6.07-1.55-9.14-1.55-4.88,0-9.44,1.27-13.67,3.81-4.23,2.54-7.61,6.03-10.16,10.46-2.54,4.43-3.81,9.31-3.81,14.65s1.27,10.22,3.81,14.65c2.54,4.43,5.94,7.93,10.19,10.5,4.25,2.57,8.8,3.85,13.63,3.85,3.47,0,6.53-.44,9.17-1.32,2.64-.88,5.47-2.4,8.49-4.57.7-.45,1.38-.68,2.04-.68.86,0,1.61.43,2.27,1.28l12.01,16.08c.55.81.83,1.51.83,2.11,0,.71-.38,1.36-1.13,1.96-4.68,3.57-9.89,6.33-15.63,8.27-5.74,1.94-11.75,2.91-18.05,2.91-10.22,0-19.54-2.47-27.98-7.4Z"/>
    <path class="st2" d="M432.07,636h-21.14c-2.01,0-3.02-1.01-3.02-3.02v-100.05c0-2.01,1.01-3.02,3.02-3.02h21.14c2.01,0,3.02,1.01,3.02,3.02v100.05c0,2.01-1.01,3.02-3.02,3.02Z"/>
    <path class="st2" d="M477.46,630.49c-8.43-4.93-15.08-11.6-19.93-20.01-4.86-8.41-7.29-17.64-7.29-27.71s2.43-19.3,7.29-27.71c4.86-8.41,11.49-15.04,19.9-19.9,8.41-4.86,17.74-7.29,28.01-7.29,6.24,0,12.22.96,17.93,2.87,5.71,1.91,10.88,4.61,15.52,8.08.86.66,1.28,1.41,1.28,2.27,0,.65-.25,1.31-.75,1.96l-12.23,16.01c-.71.86-1.46,1.28-2.27,1.28-.65,0-1.31-.23-1.96-.68-2.57-1.76-5.36-3.16-8.38-4.19-3.02-1.03-6.07-1.55-9.14-1.55-4.88,0-9.44,1.27-13.67,3.81-4.23,2.54-7.61,6.03-10.16,10.46-2.54,4.43-3.81,9.31-3.81,14.65s1.27,10.22,3.81,14.65c2.54,4.43,5.94,7.93,10.19,10.5,4.25,2.57,8.8,3.85,13.63,3.85,3.47,0,6.53-.44,9.17-1.32,2.64-.88,5.47-2.4,8.49-4.57.7-.45,1.38-.68,2.04-.68.86,0,1.61.43,2.27,1.28l12.01,16.08c.55.81.83,1.51.83,2.11,0,.71-.38,1.36-1.13,1.96-4.68,3.57-9.89,6.33-15.63,8.27-5.74,1.94-11.75,2.91-18.05,2.91-10.22,0-19.54-2.47-27.98-7.4Z"/>
    <path class="st2" d="M622.45,636h-65.09c-2.01,0-3.02-1.01-3.02-3.02v-100.05c0-2.01,1.01-3.02,3.02-3.02h21.14c2.01,0,3.02,1.01,3.02,3.02v77.09h40.93c2.01,0,3.02,1.01,3.02,3.02v19.93c0,2.01-1.01,3.02-3.02,3.02Z"/>
    <path class="st2" d="M733.8,633.82c0,.71-.23,1.25-.68,1.62-.45.38-1.08.57-1.89.57h-21.75c-1.71,0-2.84-.83-3.4-2.49l-4.83-14.12h-38.06l-4.83,14.12c-.5,1.66-1.64,2.49-3.4,2.49h-21.67c-.8,0-1.45-.19-1.92-.57-.48-.38-.72-.92-.72-1.62,0-.4.08-.83.23-1.28l38.66-100.35c.6-1.61,1.76-2.42,3.47-2.42h18.65c1.71,0,2.87.81,3.47,2.42l38.43,100.35c.15.45.23.88.23,1.28ZM693.63,596.74l-10.12-29.75-1.36-4.83-1.13,4.83-10.12,29.75h22.73Z"/>
  </g>
  <g>
    <path class="st0" d="M281.31,699.58h6.76c1,0,1.5.5,1.5,1.5v16.53c0,.78-.3,1.38-.9,1.8-2.35,1.65-5.03,2.94-8.04,3.85s-6.06,1.37-9.17,1.37c-5.03,0-9.64-1.22-13.83-3.66-4.18-2.44-7.48-5.76-9.88-9.96-2.4-4.2-3.61-8.8-3.61-13.81s1.2-9.6,3.61-13.77c2.4-4.17,5.69-7.46,9.86-9.88,4.17-2.42,8.79-3.63,13.85-3.63,3.08,0,6.04.49,8.87,1.47,2.83.98,5.41,2.34,7.74,4.1.43.35.64.71.64,1.09,0,.33-.14.66-.41,1.01l-4.13,5.41c-.35.43-.73.64-1.13.64-.33,0-.65-.11-.98-.34-1.53-1.1-3.2-1.98-5.02-2.63-1.82-.65-3.68-.98-5.58-.98-3.03,0-5.85.78-8.45,2.33-2.61,1.55-4.68,3.67-6.24,6.35-1.55,2.68-2.33,5.64-2.33,8.87s.78,6.25,2.33,8.98c1.55,2.73,3.63,4.89,6.24,6.48,2.6,1.59,5.42,2.39,8.45,2.39,1.43,0,2.86-.16,4.3-.49,1.44-.33,2.79-.79,4.04-1.39v-12.14c0-1,.5-1.5,1.5-1.5Z"/>
    <path class="st0" d="M344.12,720.96c-4.17-2.43-7.46-5.74-9.86-9.92-2.4-4.18-3.61-8.78-3.61-13.79s1.2-9.63,3.61-13.79c2.4-4.16,5.69-7.45,9.86-9.86,4.17-2.42,8.79-3.63,13.85-3.63s9.64,1.21,13.81,3.63,7.46,5.7,9.88,9.86c2.42,4.16,3.63,8.75,3.63,13.79s-1.21,9.61-3.63,13.79c-2.42,4.18-5.71,7.49-9.88,9.92s-8.77,3.64-13.81,3.64-9.68-1.21-13.85-3.64ZM366.44,712.51c2.59-1.55,4.66-3.67,6.2-6.35,1.54-2.68,2.31-5.64,2.31-8.87s-.77-6.23-2.31-8.91c-1.54-2.68-3.61-4.79-6.22-6.33-2.61-1.54-5.42-2.31-8.45-2.31s-5.85.77-8.45,2.31c-2.61,1.54-4.68,3.65-6.22,6.33-1.54,2.68-2.31,5.65-2.31,8.91s.77,6.19,2.31,8.87c1.54,2.68,3.61,4.8,6.22,6.35,2.6,1.55,5.42,2.33,8.45,2.33s5.88-.78,8.47-2.33Z"/>
    <path class="st0" d="M437.22,723.71h-7.18c-1,0-1.5-.5-1.5-1.5v-49.79c0-1,.5-1.5,1.5-1.5h7.18c1,0,1.5.5,1.5,1.5v49.79c0,1-.5,1.5-1.5,1.5Z"/>
    <path class="st0" d="M529.17,722.62c0,.35-.11.62-.34.81-.23.19-.54.28-.94.28h-7.4c-.85,0-1.41-.4-1.69-1.2l-3.31-8.87h-22.02l-3.27,8.87c-.28.8-.84,1.2-1.69,1.2h-7.36c-.43,0-.75-.09-.98-.28s-.34-.46-.34-.81c0-.2.04-.41.11-.64l19.61-49.94c.3-.8.88-1.2,1.73-1.2h6.46c.88,0,1.47.4,1.77,1.2l19.54,49.94c.07.23.11.44.11.64ZM512.41,704.88l-7.44-20.14-.49-1.73-.45,1.73-7.48,20.14h15.86ZM512.75,659.04c.23.15.34.36.34.64,0,.33-.17.65-.53.98l-6.2,6.05c-.53.5-1.15.75-1.88.75h-4.66c-.4,0-.71-.08-.94-.24-.23-.16-.34-.38-.34-.66,0-.3.11-.61.34-.94l4.36-5.9c.43-.6,1.03-.9,1.8-.9h6.73c.43,0,.75.08.98.23Z"/>
    <path class="st0" d="M575.77,722.3c-3.53-1.49-6.58-3.65-9.13-6.48-.3-.35-.45-.69-.45-1.01,0-.38.19-.75.56-1.13l4.51-4.36c.33-.33.66-.49,1.01-.49.4,0,.76.19,1.09.56,1.8,1.8,3.88,3.19,6.22,4.15s4.74,1.45,7.2,1.45c2.83,0,5.07-.56,6.71-1.69s2.46-2.71,2.46-4.73c0-1.35-.39-2.48-1.18-3.38-.79-.9-1.99-1.7-3.61-2.39-1.61-.69-3.88-1.45-6.78-2.27-4.58-1.25-8.44-3.07-11.57-5.45-3.13-2.38-4.7-5.81-4.7-10.29,0-2.73.72-5.22,2.16-7.46,1.44-2.24,3.56-4.02,6.35-5.34,2.79-1.32,6.12-1.97,9.98-1.97,3.28,0,6.44.57,9.49,1.71,3.04,1.14,5.75,2.71,8.13,4.71.4.3.6.65.6,1.05,0,.35-.15.7-.45,1.05l-4.13,4.77c-.33.4-.69.6-1.09.6-.33,0-.66-.14-1.01-.41-1.53-1.2-3.29-2.18-5.28-2.95-1.99-.76-3.96-1.15-5.92-1.15-2.53,0-4.57.48-6.13,1.43-1.55.95-2.33,2.32-2.33,4.1,0,1.28.4,2.33,1.2,3.16.8.83,1.85,1.51,3.16,2.05,1.3.54,3.19,1.18,5.67,1.94l.83.26c3.66,1.18,6.68,2.41,9.07,3.7,2.39,1.29,4.3,2.93,5.71,4.92,1.41,1.99,2.12,4.45,2.12,7.38,0,3.28-.82,6.14-2.46,8.59-1.64,2.44-3.92,4.32-6.84,5.64-2.92,1.32-6.24,1.97-9.98,1.97-3.93,0-7.67-.75-11.2-2.24Z"/>
  </g>
</svg>